<svg xmlns="http://www.w3.org/2000/svg" width="18" height="18" viewBox="0 0 18 18"><defs><style>.a{fill:none;}.b{fill:#707070;}</style></defs><path class="a" d="M0,0H18V18H0Z"/><path class="b" d="M10,5a1.5,1.5,0,1,1,1.5-1.5A1.5,1.5,0,0,1,10,5Zm3.75-3h1.5v.3a4.866,4.866,0,0,1-1.725,3.825A4.169,4.169,0,0,1,12.25,6.8V17h-1.5V12.5H9.25V17H7.75V8.075A1.221,1.221,0,0,0,7.3,8.3a2.682,2.682,0,0,0-1.05,2.325V11H4.75v-.375A4.494,4.494,0,0,1,6.332,7.032,5.977,5.977,0,0,1,10,5.75a3.578,3.578,0,0,0,2.61-.795,3.115,3.115,0,0,0,1.14-2.58ZM4,12.5H6.25V17H4Z" transform="translate(-1 -0.5)"/></svg>