<svg xmlns="http://www.w3.org/2000/svg" width="18" height="18" viewBox="0 0 18 18"><defs><style>.a{fill:none;}.b{fill:#707070;}</style></defs><rect class="a" width="18" height="18"/><g transform="translate(0 4.432)"><path class="b" d="M8.863,10.986A7.837,7.837,0,0,1,12,11.65a2.2,2.2,0,0,1,1.3,2.016v1.2H4.432V13.674a2.189,2.189,0,0,1,1.3-2.016A7.711,7.711,0,0,1,8.863,10.986Zm-5.909.185A1.477,1.477,0,1,0,1.477,9.693,1.482,1.482,0,0,0,2.954,11.17Zm.835.812a5.157,5.157,0,0,0-.835-.074A5.134,5.134,0,0,0,.9,12.337,1.485,1.485,0,0,0,0,13.7v1.16H3.324V13.674A3.323,3.323,0,0,1,3.789,11.983Zm10.983-.812A1.477,1.477,0,1,0,13.3,9.693,1.482,1.482,0,0,0,14.772,11.17ZM17.727,13.7a1.485,1.485,0,0,0-.9-1.366,5.021,5.021,0,0,0-2.888-.355,3.323,3.323,0,0,1,.465,1.691v1.189h3.324ZM8.863,6A2.216,2.216,0,1,1,6.648,8.216,2.213,2.213,0,0,1,8.863,6Z" transform="translate(0 -6)"/></g></svg>