<svg xmlns="http://www.w3.org/2000/svg" width="200.449" height="137.632" viewBox="0 0 200.449 137.632"><defs><style>.a{fill:#3f3d56;}.b{fill:#2f2e41;}.c{fill:#ffb8b8;}.d{fill:#9f63a9;}.e{fill:#a0616a;}.f{fill:#ccc;}</style></defs><g transform="translate(0 -185.404)"><path class="a" d="M485.422,328.322H290.574a2.8,2.8,0,0,0-2.8,2.8V463.155a2.8,2.8,0,0,0,2.8,2.8H485.422a2.8,2.8,0,0,0,2.128-.982.652.652,0,0,0,.061-.077,2.621,2.621,0,0,0,.4-.677,2.731,2.731,0,0,0,.212-1.062V331.121A2.8,2.8,0,0,0,485.422,328.322Zm2,134.833a1.982,1.982,0,0,1-.331,1.1,2.07,2.07,0,0,1-.758.68,1.985,1.985,0,0,1-.915.221H290.574a2,2,0,0,1-2-2V331.121a2,2,0,0,1,2-2H485.422a2,2,0,0,1,2,2Z" transform="translate(-287.775 -142.918)"/><rect class="a" width="199.649" height="0.8" transform="translate(0.399 196.623)"/><circle class="a" cx="2.401" cy="2.401" r="2.401" transform="translate(4.8 189.005)"/><circle class="a" cx="2.401" cy="2.401" r="2.401" transform="translate(11.702 189.005)"/><circle class="a" cx="2.401" cy="2.401" r="2.401" transform="translate(18.603 189.005)"/><path class="b" d="M558.078,539.891c-2.4-1.563-3.6-5.195-3.007-8.517a10.272,10.272,0,0,1,5.46-7.417,8.555,8.555,0,0,1,8.1.576c2.435,1.489,5.88,2.3,7.036,5.284.889,2.29-.239,6.939-1.435,9.163a6.785,6.785,0,0,1-4.844,3.184,14.554,14.554,0,0,1-11.771-2.716Z" transform="translate(-469.168 -275.242)"/><path class="c" d="M255.728,483.4l-1.92,3.31-.254.437-.369.642h-5.659l.382-.642.989-1.666,2.3-3.891,2.61,1.043Z" transform="translate(-168.07 -201.113)"/><path class="b" d="M531.523,612.408l-1.034-.642-.128-.08,6.487-11.822a4.408,4.408,0,0,1,2.648-2.125,4.358,4.358,0,0,1,2.176-.08,4.286,4.286,0,0,1,1.2.449,4.2,4.2,0,0,1,.446.282,4.284,4.284,0,0,1,1.316,1.483,4.435,4.435,0,0,1-.135,4.478l-2.5,4-2.138,3.419-.4.642h-7.938Z" transform="translate(-452.491 -325.729)"/><circle class="c" cx="7.884" cy="7.884" r="7.884" transform="translate(87.816 253.077)"/><path class="d" d="M572.292,610.376H554.57l.08-.228q-.068-.207-.125-.414c-.042-.144-.077-.292-.109-.437a9.693,9.693,0,0,1,0-4.077c.979-4.809,4.886-8.715,4.886-8.715.067-.051.135-.1.2-.148a8.914,8.914,0,0,1,1.878-1.053,11.984,11.984,0,0,1,7.99-.1,15.951,15.951,0,0,1,2.083.793c.237.112.366.183.366.183l.2,6.166.244,7.383Z" transform="translate(-468.678 -323.697)"/><path class="b" d="M612.587,608.068l-1.355-6.889-1.367-6.946a1.451,1.451,0,0,0-1.172-1.146l-2.863-.494-2.664-.459a1.432,1.432,0,0,0-1.384.53,1.416,1.416,0,0,0-.311.88,1.451,1.451,0,0,0,.119.575c1.39,3.242,1.416,8.375,1.063,13.951-.016.212-.029.427-.045.642h10.108Z" transform="translate(-500.774 -322.031)"/><path class="b" d="M549.57,594.55a1.453,1.453,0,0,0-2.3-.8l-1.229,1.117-5.033,4.584a1.4,1.4,0,0,0-.36.51c-.568,1.358-1.676,4.038-2.963,7.348l-.645,1.666c-.077.212-.161.427-.244.642H545.1c.067-.215.135-.43.2-.642.369-1.165.729-2.308,1.075-3.419,1.014-3.226,1.929-6.157,2.635-8.474q.294-.963.536-1.778a1.454,1.454,0,0,0,.026-.758Z" transform="translate(-456.863 -322.942)"/><path class="c" d="M339.473,484.384h.536l-.074-.18-.2-.462-3.021-7.168-.462.279-3.711,2.244,1.9,4.645.263.642h4.76Z" transform="translate(-225.798 -197.704)"/><path class="b" d="M614.206,595.744a4.437,4.437,0,0,0-5.557-2.623,4,4,0,0,0-.408.161,4.381,4.381,0,0,0-1.868,1.583,4.237,4.237,0,0,0-.459.889,4.411,4.411,0,0,0,.1,3.393l.928,2.067,3.319,7.383.289.642h6.719l.462-.18,1.2-.462.167-.064Z" transform="translate(-503.593 -322.56)"/><path class="b" d="M597.083,525.861a1.3,1.3,0,0,0,1.484-.563,1.878,1.878,0,0,0,.109-1.651,3.446,3.446,0,0,0-1.026-1.353,3.982,3.982,0,0,0-1.8-.934,2.4,2.4,0,0,0-1.943.427,1.726,1.726,0,0,0-.586,1.837,2.546,2.546,0,0,0,1.309,1.284,8.7,8.7,0,0,0,3.543,1.007Z" transform="translate(-495.191 -273.955)"/><path class="b" d="M579.105,543.874c-1.268.175-1.1-.47-1.612-1.645s-1.187-2.569-2.461-2.688c-1.044-.1-1.9.737-2.75,1.357a5.744,5.744,0,0,1-5.287.983,3.71,3.71,0,0,1-2.3-4.493,3.834,3.834,0,0,1,2.217-2.1,7.714,7.714,0,0,1,3.089-.429,15.937,15.937,0,0,1,6.7,1.714,6.474,6.474,0,0,1,3.378,3.288c.545,1.515.9,3.645-.654,4.055Z" transform="translate(-475.679 -283.148)"/><path class="b" d="M601.866,514.082a2.652,2.652,0,0,1,.916-3.316,4.491,4.491,0,0,1,3.624-.508,7.115,7.115,0,0,1,5.1,4.947c.519,1.907.211,3.956.65,5.883a7.72,7.72,0,0,0,9.7,5.69c1.317-.387,2.655-1.327,2.784-2.693a7.549,7.549,0,0,1-4.471,7.559,13.162,13.162,0,0,1-5.427.707,9.709,9.709,0,0,1-3.527-.566,6.313,6.313,0,0,1-3.317-3.6,9.992,9.992,0,0,1-.442-4.955c.181-1.293.54-2.56.641-3.862a5.361,5.361,0,0,0-.893-3.722,2.86,2.86,0,0,0-3.477-.921,8.408,8.408,0,0,1-1.327.836c-.5.165-1.2-.125-1.159-.647Z" transform="translate(-500.621 -266.344)"/><path class="d" d="M770.781,597.706l.061-.642,1.81-18.836a11.533,11.533,0,0,1,1.9-1.21,11.221,11.221,0,0,1,9.267-.2,10.14,10.14,0,0,1,1.49.729l1.059,19.52.035.642Z" transform="translate(-615.736 -311.027)"/><circle class="c" cx="7.884" cy="7.884" r="7.884" transform="translate(155.64 246.42)"/><path class="b" d="M782.3,521.094a4.292,4.292,0,0,0-3.257-7.243,12.1,12.1,0,0,0-3.158.81,10.444,10.444,0,0,1-4.906.442,6.552,6.552,0,0,1-4.178-2.467,4.8,4.8,0,0,1-.59-4.708c.8-1.741,2.654-2.7,4.4-3.48a8.043,8.043,0,0,1,2.235-.734,2.866,2.866,0,0,1,2.223.56c.491.423.779,1.058,1.314,1.424a4.412,4.412,0,0,0,2.109.474,8.091,8.091,0,0,1,3.919,14.618Z" transform="translate(-612.377 -261.983)"/><path class="b" d="M752.2,581.259,751.029,578l-.073-.2a.675.675,0,0,0-1.01-.333l-1.334.889s-8.555,0-9.242,5.133c-.01.08-.022.17-.032.266a.052.052,0,0,1,0,.013c-.087.337-1.7,6.577-3.088,14.281-.038.212-.077.427-.116.642H754.72C755.325,590.948,754.987,583.752,752.2,581.259Z" transform="translate(-592.209 -312.007)"/><path class="b" d="M816.991,598.046c-1.014-7.9-2.465-14.294-2.465-14.294-.013-.1-.026-.186-.035-.266-.684-5.133-9.238-5.133-9.238-5.133l-1.333-.889a.676.676,0,0,0-1.01.333l-1.249,3.464c-2.783,2.493-3.122,9.688-2.517,17.427h17.928C817.045,598.472,817.017,598.257,816.991,598.046Z" transform="translate(-634.821 -312.008)"/><path class="d" d="M371.114,585.049l-1.907,18-.067.642h-5.159c.061-.209.122-.424.186-.642,1.464-5.02,3.457-12.349,3.242-14.291a3.8,3.8,0,0,1,2.022-4.041l.148.029Z" transform="translate(-339.519 -317.007)"/><circle class="e" cx="7.884" cy="7.884" r="7.884" transform="translate(32.03 246.72)"/><path class="d" d="M396.945,594.275a12.929,12.929,0,0,0-.973,2.3c-.093.282-.183.578-.266.88-.061.209-.116.424-.17.642H374.741c.029-.212.055-.427.084-.642,1.063-8.394,1.923-16.914,2.061-18.3.013-.132.019-.2.019-.2a18.867,18.867,0,0,1,21.555,2.022s.013.061.032.18C398.691,582.353,399.705,589.363,396.945,594.275Z" transform="translate(-346.825 -311.415)"/><path class="d" d="M437.948,606.415l-1.387-2.972.337-11.787,3.57-.661.125-.022a9.452,9.452,0,0,1,4.051,4.725c.693,1.733,2.013,6.946,3.127,11.6.051.215.1.43.154.642h-9.267l-.3-.642Z" transform="translate(-388.801 -321.257)"/><path class="a" d="M376.158,478.822H330.569a3.693,3.693,0,0,0-3.688,3.688V528.1a3.693,3.693,0,0,0,3.688,3.688h45.589a3.691,3.691,0,0,0,3.688-3.688V482.51A3.691,3.691,0,0,0,376.158,478.822ZM379.2,528.1a3.049,3.049,0,0,1-3.046,3.046H330.569a3.051,3.051,0,0,1-3.046-3.046V482.51a3.051,3.051,0,0,1,3.046-3.046h45.589a3.049,3.049,0,0,1,3.046,3.046Zm-35.188,3.046-.067.642h19.09c.055-.218.109-.433.17-.642Z" transform="translate(-314.328 -245.108)"/><path class="a" d="M566.768,478.822H521.179a3.693,3.693,0,0,0-3.688,3.688V528.1a3.693,3.693,0,0,0,3.688,3.688h45.589a3.691,3.691,0,0,0,3.688-3.688V482.51A3.691,3.691,0,0,0,566.768,478.822Zm3.046,49.277a3.049,3.049,0,0,1-3.046,3.046H521.179a3.051,3.051,0,0,1-3.046-3.046V482.51a3.051,3.051,0,0,1,3.046-3.046h45.589a3.049,3.049,0,0,1,3.046,3.046ZM529.6,531.145q.058.207.125.414l-.08.228h15.941c.016-.215.029-.43.045-.642Z" transform="translate(-443.752 -245.108)"/><path class="a" d="M757.388,478.822H711.8a3.691,3.691,0,0,0-3.688,3.688V528.1a3.691,3.691,0,0,0,3.688,3.688h45.589a3.693,3.693,0,0,0,3.688-3.688V482.51a3.693,3.693,0,0,0-3.688-3.688Zm3.046,49.277a3.051,3.051,0,0,1-3.046,3.046H711.8a3.049,3.049,0,0,1-3.046-3.046V482.51a3.049,3.049,0,0,1,3.046-3.046h45.589a3.051,3.051,0,0,1,3.046,3.046Zm-24.691,3.046c-.016.212-.032.427-.048.642h13.832c.026-.212.055-.427.08-.642Z" transform="translate(-573.183 -245.108)"/><path class="f" d="M535.494,690.958H429.564a2.568,2.568,0,0,1,0-5.136h105.93a2.568,2.568,0,0,1,0,5.136Z" transform="translate(-382.306 -385.66)"/><path class="d" d="M568.609,425.958H522.064a2.568,2.568,0,0,1,0-5.136h46.545a2.568,2.568,0,0,1,0,5.136Z" transform="translate(-445.113 -205.726)"/><path class="b" d="M394.015,527.462a1.558,1.558,0,0,0,2.037.131,13.843,13.843,0,0,0,4.455-5.183,8.375,8.375,0,0,0-.1-7.614,11.916,11.916,0,0,0-5.1-4.188,9.076,9.076,0,0,0-2.463-.949,3.511,3.511,0,0,0-2.552.412,2.2,2.2,0,0,0-1,2.276,8.3,8.3,0,0,0-3.541-2.377,4.58,4.58,0,0,0-2.7-.2,4.433,4.433,0,0,0-2.681,2.684,5.368,5.368,0,0,0-.405,2.929,3.578,3.578,0,0,0,1.563,2.451,4.827,4.827,0,0,0,3.565.334,30.172,30.172,0,0,1,3.572-.837,3.694,3.694,0,0,1,3.318,1.162,5.065,5.065,0,0,1,.774,2.436l.61,4.442a5.419,5.419,0,0,0,.485,1.856A1.069,1.069,0,0,0,394.015,527.462Z" transform="translate(-350.33 -265.989)"/></g></svg>