<svg xmlns="http://www.w3.org/2000/svg" width="18" height="18" viewBox="0 0 18 18"><defs><style>.a{fill:none;}.b{fill:#9f63a9;}</style></defs><g transform="translate(-0.152 -0.152)"><rect class="a" width="18" height="18" transform="translate(0.152 0.152)"/><g transform="translate(1.525 3.051)"><path class="b" d="M14.2,8.942V5.525A1.53,1.53,0,0,0,12.677,4H3.525A1.53,1.53,0,0,0,2,5.525v9.152A1.53,1.53,0,0,0,3.525,16.2h9.152A1.53,1.53,0,0,0,14.2,14.677V11.261L17.253,14.3V5.907ZM8.1,7.051A1.525,1.525,0,1,1,6.576,8.576,1.53,1.53,0,0,1,8.1,7.051Zm3.051,6.1h-6.1v-.435a1.534,1.534,0,0,1,.93-1.411,5.3,5.3,0,0,1,4.24,0,1.534,1.534,0,0,1,.93,1.411Z" transform="translate(-2 -4)"/></g></g></svg>